<svg xmlns="http://www.w3.org/2000/svg" xmlns:xlink="http://www.w3.org/1999/xlink" width="48" height="48" fill-rule="nonzero" viewBox="0 0 256 256"><g fill="#fcaf17" fill-rule="nonzero" stroke="none" stroke-dashoffset="0" stroke-linecap="butt" stroke-linejoin="miter" stroke-miterlimit="10" stroke-width="1" font-family="none" font-size="none" font-weight="none" text-anchor="none" style="mix-blend-mode:normal"><g><path d="M42.164,17.126l-11.29,-11.291c-3.781,-3.781 -9.967,-3.781 -13.748,0l-11.29,11.291c-3.781,3.781 -3.781,9.967 0,13.748l11.291,11.291c3.781,3.781 9.967,3.781 13.748,0l11.291,-11.291c3.779,-3.781 3.779,-9.967 -0.002,-13.748zM24,31c-3.866,0 -7,-3.134 -7,-7c0,-3.866 3.134,-7 7,-7c3.866,0 7,3.134 7,7c0,3.866 -3.134,7 -7,7z" transform="scale(5.33333,5.33333)"/></g></g></svg>